<svg xmlns="http://www.w3.org/2000/svg" viewBox="0 0 192 192" class="contact__icon">
<circle cx="96" cy="96" r="96" fill="#f8e610"/>
<path d="M167.66,99.72l-.95,0-.32-11.38,1,0Zm7.57-8.64,0-2,.92,0,.27,9.31-.93,0-.05-2-4.37.13.06,1.91-.94,0-.27-9.25.94,0,.06,1.92Zm.12,4.26-.08-3.12-4.37.13.09,3.12Z"/>
<path d="M171.85,126.36l-11.93-4,.36-1.09,11.94,4Zm-5.47-10.72a36.59,36.59,0,0,0-1.52,5.93l-.92-.19a36.26,36.26,0,0,1,1.57-6.15l.33-1,4.56,1.53-1.46,4.38,2.48.83,1.48-4.42.89.3-1.85,5.52L167.69,121l1.47-4.39Z"/>
<path d="M147.46,144.06l-.73-.59,5.36-6.66,2.93,2.36-.72.9-2.2-1.78Zm3.81-1,.68-.85,6.82,5.48-.69.85-2.74-2.21-1.06,1.31,2.93,2.35-.7.86L149.24,145l.69-.86,3.62,2.91,1-1.31Zm2.52-.14a22.72,22.72,0,0,1,2.66-3.92l.52-.64,2.88,2.31-2.25,2.8L159,144.6l2.26-2.81.72.58L159,146l-2.79-2.23,2.25-2.8L157,139.83a20.3,20.3,0,0,0-2.43,3.6Z"/>
<path d="M128.16,160.3l-.49-.81,9.73-5.9.5.81Zm2.3,1.72a6.8,6.8,0,0,1,5.87.68,6.91,6.91,0,0,1,2.1-5.51l.93.55c-1.65,1.51-2.7,4.35-1.59,6.19l.5.82-1,.63-.5-.83c-1.11-1.83-4.13-2.23-6.23-1.45Z"/>
<path d="M87.25,171.27l2,.07.23-6.51,1.15,0-.45,12.56-1.15-.05.19-5.09-2-.07Zm5.09,4.89a9.47,9.47,0,0,1,6-8.63l.6.92c-3.26,1.5-5.07,3.84-5.45,6.8l4.6.17,0,1Z"/>
<path d="M62.08,163.93l.35-.87,10.51,4.29-.35.87Zm.65,1.84L70.62,169l-1.57,3.85L68,172.41l1.22-3-6.83-2.79ZM65,160.43c.55-1.35,2.37-1.5,4.84-.49s3.67,2.39,3.12,3.74-2.38,1.51-4.85.5S64.46,161.79,65,160.43Zm1.08.44c-.34.82.54,1.73,2.37,2.48s3.09.72,3.43-.11-.55-1.72-2.38-2.47-3.1-.71-3.42.1Z"/>
<path d="M39.43,149.15l1.37,1.25,2.12-2.31.85.77-4.93,5.38-.85-.77,2.16-2.36-1.38-1.26Zm1.75,4.24,5.46,5-.62.69L43.72,157l-1,1-.85-.78,1-1-2.31-2.12Zm6.1-1.17c1.32,1.21,1.63,2.66.72,3.65s-2.36.8-3.68-.41-1.65-2.67-.75-3.65,2.39-.8,3.71.41Zm-3.15-3.78-.84-.76,3.07-3.35,5.82,5.34L49.12,153l-.84-.77.9-1L45,147.47Zm2.56,4.42c-.85-.77-1.75-.92-2.31-.31s-.33,1.5.51,2.28,1.76.9,2.3.3.35-1.49-.49-2.27Zm-1.06-6.06,4.15,3.8.94-1-4.15-3.8Z"/>
<path d="M21.49,129.51l11.13-5.79.53,1L22,130.52Zm11.24,3.58a29.27,29.27,0,0,0-3.25-5l.81-.56a29.05,29.05,0,0,1,3.36,5.2l.48.92L27,137.39l-.53-1Z"/>
<path d="M20.23,99.6l.26,2.05,6.62-.83.15,1.13-12.49,1.59-.14-1.14,4.91-.63-.26-2Zm3.8,9.65a30.8,30.8,0,0,0-1.13-5.56l.93-.25A29.82,29.82,0,0,1,25,109.28l.12,1-8.18,1-.73-5.79.94-.12.59,4.65Z"/>
<path d="M26.69,69.7a1.75,1.75,0,1,1,2.4-.91,1.8,1.8,0,0,1-2.34.94Z"/>
<path d="M49.21,36.64a3.21,3.21,0,0,1-1.28,2.54A3.15,3.15,0,1,1,44,34.25a3.26,3.26,0,0,1,2.74-.68l2.5-2L48,30.05l.9-.73,5.78,7.25-.91.73-2.1-2.64ZM47.3,38.39a2.14,2.14,0,1,0-3-.34h0a2.07,2.07,0,0,0,2.9.43Zm.4-4.4a3.19,3.19,0,0,1,.79.72,3.13,3.13,0,0,1,.51.91l2.11-1.68-1.3-1.63Zm8.56,4,.59.73-6.57,5.23-2.46-3.09.91-.72,1.88,2.35Z"/>
<path d="M74.18,24.29a33.3,33.3,0,0,1-5.53,2.27l-.94.31-1.14-3.44L70.84,22l-.52-1.58L66,21.85,65.73,21l5.37-1.77,1.09,3.31-4.27,1.41.57,1.71a30.51,30.51,0,0,0,5.29-2.18Zm-5.07,3.52,7.75-2.55,1.32,4-1.09.36-1-3.15-6.66,2.2Zm8.22-7.06-1.77.58,1.09,3.3L75.56,25l-2.39-7.24,1.09-.36,1,3L77,19.85Z"/>
<path d="M97.13,16.55l3.09.1,0,.92-7.4-.24,0-.92,3.16.1L96,14.65l1.15,0Zm2.35,4.93a3.06,3.06,0,1,1-3.11-3h.14a2.85,2.85,0,0,1,3,2.72Zm-1.09,0a2,2,0,1,0-2.07,1.86h0a1.89,1.89,0,0,0,2-1.74S98.39,21.49,98.39,21.45Zm6.09-.55-2.06-.06-.2,6.41-1.15,0,.41-12.53,1.14,0-.16,5.15,2.05.07Z"/>
<path d="M126.94,22.08c-1.36,3.36-4.1,5.7-8.74,6L118,27c3.73-.22,6.2-1.83,7.53-4.5l-4.37-1.77.35-.85Zm3.92.12-4.71,11.64-1.07-.43,4.72-11.64Z"/>
<path d="M152.87,48.48a1.75,1.75,0,1,1-.38,2.54,1.8,1.8,0,0,1,.33-2.51Z"/>
<path d="M96,102.4l-5.54-4.85L74.61,111.13a3.24,3.24,0,0,0,2.21.87h38.36a3.23,3.23,0,0,0,2.2-.87L101.54,97.55Z"/>
<path d="M117.39,80.87a3.24,3.24,0,0,0-2.21-.87H76.82a3.21,3.21,0,0,0-2.2.87L96,99.2Z"/>
<path d="M73.6,82.81V109.4L89.07,96.25Z"/>
<path d="M102.93,96.25,118.4,109.4V82.8Z"/>
</svg>