<svg version="1.2" xmlns="http://www.w3.org/2000/svg" xmlns:xlink="http://www.w3.org/1999/xlink" viewBox="0 0 192 192" xml:space="preserve" class="contact__icon"><circle fill="#F8E610" cx="96" cy="96" r="96"/><g><path d="M155.8,40.5l1,1.1l-4.8,9.6l-1-1.1l1.5-2.8l-2.8-3.1l-3,1.2l-0.9-1L155.8,40.5z M150.8,43.7l2.3,2.5l2.3-4.4 l0,0L150.8,43.7z"/><path d="M156.5,57.9l-0.8-1.3l6.5-8.3l0.8,1.2l-5.8,7.1l0,0l8.9-2.2l0.7,1.2L156.5,57.9z"/><path d="M170.6,63.2l0.6,1.4l-7.7,7.5l-0.6-1.4l2.3-2.2l-1.7-3.9l-3.2,0.1l-0.5-1.2L170.6,63.2z M164.8,64.6l1.3,3.1 l3.6-3.4l0,0L164.8,64.6z"/><path d="M174.5,74.3l0.3,1.3l-9.7,2.6l-0.3-1.3L174.5,74.3z"/><path d="M176.4,82.8l0.2,1.3l-8.8,1.1l0.7,5.3l-1.1,0.1l-0.8-6.6L176.4,82.8z"/><path d="M177.4,98.8l-0.1,1.5l-10.2,3.5l0.1-1.5l3.1-1l0.2-4.2l-3-1.2l0.1-1.4L177.4,98.8z M171.5,97.5l-0.1,3.4 l4.7-1.5l0,0L171.5,97.5z"/><path d="M176.2,110.6l-0.8,3.5c-0.13,0.89-0.43,1.74-0.9,2.5c-0.95,0.98-2.51,1.01-3.5,0.06 c-0.35-0.34-0.6-0.78-0.7-1.26l0,0c-0.4,1.09-1.6,1.66-2.7,1.3c-0.73-0.15-1.38-0.58-1.8-1.2c-0.41-0.73-0.52-1.59-0.3-2.4l1.1-4.7 L176.2,110.6z M167.2,110l-0.7,3.2c-0.15,0.51-0.07,1.05,0.2,1.5c0.24,0.45,0.69,0.75,1.2,0.8c1.1,0.2,1.8-0.3,2.1-1.7l0.7-3 L167.2,110z M171.7,111l-0.6,2.6c-0.2,0.55-0.2,1.15,0,1.7c0.23,0.42,0.63,0.71,1.1,0.8c0.6,0.1,1.1,0.1,1.4-0.3 c0.35-0.44,0.59-0.95,0.7-1.5l0.6-2.6L171.7,111z"/><path d="M172.1,125.2l-0.5,1.2l-8.2-3.4l-2,4.9l-1-0.4l2.6-6.1L172.1,125.2z"/><path d="M166.4,137.1l-3.7,5.8l-0.9-0.6l3-4.7l-2.7-1.7l-2.8,4.4l-0.9-0.6l2.8-4.4l-2.9-1.9l-3,4.7l-0.9-0.6l3.7-5.9 L166.4,137.1z"/><path d="M152.3,155.1l-4.9,4.4l-0.7-0.8l3.9-3.5l-2.1-2.4l-3.4,3.1l-0.7-0.8l3.4-3.1l-3.1-3.4l1-0.9L152.3,155.1z"/><path d="M139.6,159.2c0.49,0.75,0.8,1.61,0.9,2.5c0.11,0.85-0.03,1.72-0.4,2.5c-0.41,0.85-1.08,1.55-1.9,2 c-0.77,0.51-1.68,0.75-2.6,0.7c-0.86-0.05-1.68-0.33-2.4-0.8c-0.72-0.51-1.33-1.15-1.8-1.9c-0.37-0.59-0.64-1.23-0.8-1.9 c-0.13-0.62-0.17-1.27-0.1-1.9c0.1-0.64,0.34-1.26,0.7-1.8c0.77-1.23,2.06-2.04,3.5-2.2c0.64-0.09,1.29-0.02,1.9,0.2 c0.61,0.2,1.16,0.54,1.6,1C138.77,158.03,139.25,158.58,139.6,159.2z M139.2,161.8c-0.14-0.66-0.38-1.3-0.7-1.9 c-0.35-0.56-0.79-1.07-1.3-1.5c-0.53-0.39-1.15-0.63-1.8-0.7c-0.7-0.07-1.41,0.1-2,0.5c-0.64,0.35-1.14,0.92-1.4,1.6 c-0.21,0.61-0.28,1.26-0.2,1.9c0.14,0.66,0.38,1.3,0.7,1.9c0.35,0.56,0.79,1.07,1.3,1.5c0.53,0.39,1.15,0.63,1.8,0.7 c0.7,0.07,1.41-0.1,2-0.5c0.64-0.35,1.14-0.92,1.4-1.6C139.31,163.12,139.38,162.44,139.2,161.8L139.2,161.8z"/><path d="M127.4,171.6l-4.4,1.6c-0.73,0.33-1.55,0.36-2.3,0.1c-0.65-0.29-1.16-0.83-1.4-1.5 c-0.21-0.54-0.28-1.13-0.2-1.7c0.1-0.54,0.43-1.01,0.9-1.3l0,0c-0.44,0.09-0.9,0.02-1.3-0.2c-0.39-0.32-0.7-0.73-0.9-1.2 c-0.04-0.18-0.11-0.34-0.2-0.5c-0.06-0.22-0.16-0.42-0.3-0.6c-0.1-0.1-0.1-0.3-0.3-0.5c-0.07-0.21-0.22-0.38-0.4-0.5 c-0.1-0.1-0.3-0.2-0.4-0.3l1.4-0.5c0.18,0.12,0.32,0.3,0.4,0.5c0.1,0.2,0.2,0.5,0.4,0.9c0.1,0.3,0.3,0.6,0.4,0.9 c0.08,0.23,0.22,0.43,0.4,0.6l0.4,0.4c0.18,0.11,0.39,0.18,0.6,0.2c0.27,0.01,0.54-0.02,0.8-0.1l3-1.1l-1.5-4l1.2-0.5L127.4,171.6z M122,168.7c-0.54,0.17-1.02,0.48-1.4,0.9c-0.29,0.45-0.33,1.02-0.1,1.5c0.16,0.41,0.43,0.76,0.8,1c0.45,0.2,0.95,0.2,1.4,0 l3.1-1.2l-1.2-3.3L122,168.7z"/><path d="M104.2,177.6l-6.5,0.5l-0.1-1.1l5.2-0.4l-0.2-3.2l-4.6,0.3l-0.1-1.1l4.6-0.3l-0.3-4.6l1.3-0.1L104.2,177.6z" /><path d="M90.7,177.9l-4.7-0.5c-0.81-0.05-1.59-0.37-2.2-0.9c-0.51-0.53-0.73-1.28-0.6-2c0.08-0.57,0.28-1.12,0.6-1.6 c0.35-0.43,0.85-0.72,1.4-0.8l0,0c-0.43-0.12-0.79-0.41-1-0.8c-0.22-0.43-0.32-0.92-0.3-1.4v-1.7c0-0.2-0.1-0.4-0.1-0.6 c-0.1-0.2-0.1-0.3-0.2-0.5l1.5,0.1c0.1,0.1,0.1,0.3,0.2,0.6v1.9c-0.02,0.24,0.01,0.48,0.1,0.7c0.02,0.21,0.09,0.42,0.2,0.6 c0.07,0.21,0.22,0.38,0.4,0.5c0.25,0.12,0.52,0.19,0.8,0.2L90,172l0.4-4.2l1.3,0.1L90.7,177.9z M87.1,173 c-0.57-0.1-1.17-0.03-1.7,0.2c-0.45,0.29-0.75,0.77-0.8,1.3c-0.07,0.46,0.04,0.92,0.3,1.3c0.36,0.34,0.81,0.55,1.3,0.6l3.3,0.3 l0.4-3.5L87.1,173z"/><path d="M75.7,175.7l-6.6-1.9l0.3-1.1l5.4,1.5l0.9-3.1l-5-1.4l0.3-1.1l5,1.4l1-3.3l-5.4-1.6l0.3-1.1l6.7,1.9 L75.7,175.7z"/><path d="M62.4,171.2l-6.2-3l0.5-1l5,2.4l1.4-2.9l-4.7-2.3l0.5-1l4.7,2.3l1.5-3.1l-5-2.5l0.5-1l6.2,3L62.4,171.2z"/><path d="M50.1,164.4l-1.1-0.8l5.2-7.2l-4.3-3.1l0.7-0.9l5.4,3.8L50.1,164.4z"/><path d="M37.8,154.3l-1-1l4.3-9.8l1,1l-1.4,2.9l3,3l2.9-1.3l1,1L37.8,154.3z M42.6,150.9l-2.4-2.4l-2.1,4.5l0,0 L42.6,150.9z"/><path d="M29.8,145.4l-0.8-1.2l3.7-8.9l0,0l-6.7,4.6l-0.7-1l8.3-5.6l0.8,1.2l-3.7,8.8l0,0l6.6-4.5l0.7,1L29.8,145.4z" /><path d="M21.6,124.3c-0.53,0.35-0.92,0.89-1.1,1.5c-0.13,0.64-0.06,1.3,0.2,1.9c0.32,0.96,1.11,1.68,2.1,1.9 c1.02,0.2,2.07,0.06,3-0.4c1-0.38,1.84-1.09,2.4-2c0.49-0.86,0.52-1.91,0.1-2.8c-0.24-0.73-0.79-1.31-1.5-1.6 c-0.71-0.25-1.49-0.25-2.2,0l-0.5-1.2c1.03-0.4,2.17-0.4,3.2,0c0.99,0.49,1.74,1.36,2.1,2.4c0.6,1.16,0.6,2.54,0,3.7 c-0.67,1.18-1.73,2.1-3,2.6c-1.25,0.59-2.68,0.7-4,0.3c-1.27-0.38-2.27-1.35-2.7-2.6c-0.39-0.91-0.49-1.93-0.3-2.9 c0.22-0.94,0.84-1.75,1.7-2.2L21.6,124.3z"/><path d="M16.1,117.2l-1.5-6.7l1.1-0.2l1.2,5.4L20,115l-1.1-5.1l1.1-0.2l1.1,5.1l3.4-0.8l-1.2-5.5l1.1-0.2l1.5,6.8 L16.1,117.2z"/><path d="M19.4,83.6c0.39,0.08,0.75,0.29,1,0.6c0.2,0.33,0.31,0.71,0.3,1.1c-0.08,0.39-0.29,0.75-0.6,1 c-0.33,0.2-0.71,0.31-1.1,0.3c-0.39-0.08-0.75-0.29-1-0.6c-0.2-0.33-0.31-0.71-0.3-1.1c0.08-0.39,0.29-0.75,0.6-1 C18.58,83.6,19.01,83.48,19.4,83.6z"/><path d="M28.2,54.4c-0.62-0.22-1.31-0.18-1.9,0.1c-0.58,0.29-1.06,0.74-1.4,1.3c-0.56,0.83-0.63,1.9-0.2,2.8 c0.45,0.94,1.19,1.71,2.1,2.2c0.9,0.56,1.94,0.84,3,0.8c1.71-0.25,2.89-1.83,2.65-3.54c-0.01-0.09-0.03-0.17-0.05-0.26 c-0.25-0.74-0.74-1.38-1.4-1.8l0.7-1.2c0.94,0.59,1.62,1.52,1.9,2.6c0.18,1.07-0.03,2.17-0.6,3.1c-0.56,1.21-1.68,2.07-3,2.3 c-2.76,0.28-5.39-1.26-6.5-3.8c-0.46-1.26-0.32-2.66,0.4-3.8c0.46-0.88,1.2-1.58,2.1-2c0.89-0.4,1.91-0.4,2.8,0L28.2,54.4z"/><path d="M34,49.3c-0.67-0.58-1.22-1.3-1.6-2.1c-0.38-0.77-0.52-1.65-0.4-2.5c0.13-0.94,0.55-1.81,1.2-2.5 c0.58-0.74,1.39-1.27,2.3-1.5c0.82-0.2,1.68-0.2,2.5,0c0.85,0.25,1.64,0.7,2.3,1.3c0.49,0.45,0.93,0.95,1.3,1.5 c0.35,0.55,0.59,1.16,0.7,1.8c0.11,0.63,0.08,1.28-0.1,1.9c-0.19,0.7-0.53,1.35-1,1.9c-0.47,0.55-1.05,0.99-1.7,1.3 c-0.59,0.28-1.24,0.42-1.9,0.4c-0.62-0.04-1.23-0.17-1.8-0.4C35.13,50.15,34.52,49.78,34,49.3z M33.6,46.8 c0.29,0.61,0.74,1.13,1.3,1.5c0.48,0.46,1.06,0.8,1.7,1c0.61,0.24,1.27,0.27,1.9,0.1c0.72-0.13,1.36-0.52,1.8-1.1 c0.49-0.52,0.77-1.19,0.8-1.9c0.02-0.66-0.12-1.31-0.4-1.9c-0.29-0.61-0.74-1.13-1.3-1.5c-0.48-0.46-1.06-0.8-1.7-1 c-0.61-0.24-1.27-0.27-1.9-0.1c-0.72,0.13-1.36,0.52-1.8,1.1c-0.49,0.52-0.77,1.19-0.8,1.9C33.13,45.56,33.27,46.23,33.6,46.8z"/><path d="M41.8,33.8l1.1-0.9L52,36l0,0l-5-6.4l1-0.8l6.2,7.9l-1.1,0.9L44,34.5l0,0l4.9,6.3l-1,0.8L41.8,33.8z"/><path d="M57.1,24.7l-2.9,1.6l-0.5-1l7.1-3.7l0.5,1l-2.9,1.6l4,7.8l-1.2,0.6L57.1,24.7z"/><path d="M68.1,18.7l1.4-0.5l6.9,8.2L75,26.9l-2-2.5l-4,1.4L68.9,29l-1.3,0.4L68.1,18.7z M69.1,24.5l3.2-1.1l-3.1-3.9 l0,0L69.1,24.5z"/><path d="M87,17.4c-0.16-0.63-0.61-1.14-1.2-1.4c-0.59-0.3-1.25-0.41-1.9-0.3c-0.96,0.1-1.82,0.66-2.3,1.5 c-0.49,0.92-0.64,1.98-0.4,3c0.12,1.08,0.57,2.09,1.3,2.9c0.7,0.72,1.72,1.02,2.7,0.8c0.76-0.08,1.46-0.48,1.9-1.1 c0.43-0.65,0.61-1.43,0.5-2.2l1.3-0.2c0.15,1.11-0.18,2.24-0.9,3.1c-1.66,1.82-4.43,2.08-6.4,0.6c-0.97-0.92-1.57-2.17-1.7-3.5 c-0.25-1.34,0-2.73,0.7-3.9c0.71-1.11,1.89-1.85,3.2-2c0.98-0.18,2-0.04,2.9,0.4c0.84,0.47,1.46,1.26,1.7,2.2L87,17.4z"/><path d="M97.4,15.1L94.1,15v-1.1l8,0.3v1.1l-3.3-0.1l-0.3,8.9h-1.3L97.4,15.1z"/><path d="M126.4,25.5c-0.2,0.4-0.4,0.7-0.8,0.8c-0.39,0.15-0.81,0.15-1.2,0c-0.4-0.2-0.7-0.4-0.8-0.8 c-0.15-0.39-0.15-0.81,0-1.2c0.2-0.4,0.4-0.7,0.8-0.8c0.39-0.15,0.81-0.15,1.2,0c0.4,0.2,0.7,0.4,0.8,0.8 C126.6,24.67,126.6,25.12,126.4,25.5z"/> </g> <g> <path fill="#050406" d="M96,102.4l-5.54-4.85l-15.85,13.58c0.6,0.56,1.39,0.87,2.21,0.87h38.36 c0.82,0,1.6-0.31,2.2-0.87l-15.84-13.58L96,102.4z"/><path fill="#050406" d="M117.39,80.87c-0.6-0.56-1.39-0.87-2.21-0.87H76.82c-0.82,0-1.6,0.31-2.2,0.87L96,99.2 L117.39,80.87z"/><path fill="#050406" d="M73.6,82.81v26.59l15.47-13.15L73.6,82.81z"/><path fill="#050406" d="M102.93,96.25l15.47,13.15V82.8L102.93,96.25z"/></g></svg>